<mxfile host="Electron" modified="2025-09-09T08:59:47.629Z" agent="Mozilla/5.0 (Windows NT 10.0; Win64; x64) AppleWebKit/537.36 (KHTML, like Gecko) draw.io/23.1.5 Chrome/120.0.6099.109 Electron/28.1.0 Safari/537.36" etag="4UhmZo6gmBhTRjKRKsq4" version="23.1.5" type="device">
  <diagram name="Страница — 1" id="oo3S-sgpGOCewUvXiICc">
    <mxGraphModel dx="2395" dy="1503" grid="1" gridSize="10" guides="1" tooltips="1" connect="1" arrows="1" fold="1" page="0" pageScale="1" pageWidth="827" pageHeight="1169" math="0" shadow="0">
      <root>
        <mxCell id="0" />
        <mxCell id="1" parent="0" />
        <mxCell id="9d_VNe_IfC9V1MOEfFam-3" value="&amp;lt;&amp;lt;include&amp;gt;&amp;gt;" style="html=1;verticalAlign=bottom;labelBackgroundColor=none;endArrow=open;endFill=0;dashed=1;rounded=0;" edge="1" parent="1" source="9d_VNe_IfC9V1MOEfFam-40" target="9d_VNe_IfC9V1MOEfFam-38">
          <mxGeometry width="160" relative="1" as="geometry">
            <mxPoint x="-90" y="720" as="sourcePoint" />
            <mxPoint x="70" y="720" as="targetPoint" />
          </mxGeometry>
        </mxCell>
        <mxCell id="9d_VNe_IfC9V1MOEfFam-16" style="edgeStyle=none;rounded=0;orthogonalLoop=1;jettySize=auto;html=1;strokeColor=default;align=center;verticalAlign=middle;fontFamily=Helvetica;fontSize=11;fontColor=default;labelBackgroundColor=default;endArrow=none;endFill=0;" edge="1" parent="1" source="9d_VNe_IfC9V1MOEfFam-12" target="9d_VNe_IfC9V1MOEfFam-31">
          <mxGeometry relative="1" as="geometry">
            <mxPoint x="248.52383930201813" y="407.34984469214214" as="targetPoint" />
          </mxGeometry>
        </mxCell>
        <mxCell id="9d_VNe_IfC9V1MOEfFam-43" style="edgeStyle=none;rounded=0;orthogonalLoop=1;jettySize=auto;html=1;strokeColor=default;align=center;verticalAlign=middle;fontFamily=Helvetica;fontSize=11;fontColor=default;labelBackgroundColor=default;endArrow=none;endFill=0;" edge="1" parent="1" source="9d_VNe_IfC9V1MOEfFam-12" target="9d_VNe_IfC9V1MOEfFam-41">
          <mxGeometry relative="1" as="geometry" />
        </mxCell>
        <mxCell id="9d_VNe_IfC9V1MOEfFam-12" value="Пользователь" style="shape=umlActor;verticalLabelPosition=bottom;verticalAlign=top;html=1;outlineConnect=0;" vertex="1" parent="1">
          <mxGeometry x="144" y="570" width="30" height="60" as="geometry" />
        </mxCell>
        <mxCell id="9d_VNe_IfC9V1MOEfFam-17" style="edgeStyle=none;rounded=0;orthogonalLoop=1;jettySize=auto;html=1;strokeColor=default;align=center;verticalAlign=middle;fontFamily=Helvetica;fontSize=11;fontColor=default;labelBackgroundColor=default;endArrow=none;endFill=0;exitX=1;exitY=1;exitDx=0;exitDy=0;exitPerimeter=0;" edge="1" parent="1" source="9d_VNe_IfC9V1MOEfFam-14" target="9d_VNe_IfC9V1MOEfFam-31">
          <mxGeometry relative="1" as="geometry">
            <mxPoint x="150" y="130" as="sourcePoint" />
            <mxPoint x="251.84525205438968" y="331.8750293142184" as="targetPoint" />
          </mxGeometry>
        </mxCell>
        <mxCell id="9d_VNe_IfC9V1MOEfFam-42" style="edgeStyle=none;rounded=0;orthogonalLoop=1;jettySize=auto;html=1;strokeColor=default;align=center;verticalAlign=middle;fontFamily=Helvetica;fontSize=11;fontColor=default;labelBackgroundColor=default;endArrow=none;endFill=0;exitX=0;exitY=1;exitDx=0;exitDy=0;exitPerimeter=0;" edge="1" parent="1" source="9d_VNe_IfC9V1MOEfFam-14" target="9d_VNe_IfC9V1MOEfFam-41">
          <mxGeometry relative="1" as="geometry" />
        </mxCell>
        <mxCell id="9d_VNe_IfC9V1MOEfFam-76" style="edgeStyle=none;rounded=0;orthogonalLoop=1;jettySize=auto;html=1;strokeColor=default;align=center;verticalAlign=middle;fontFamily=Helvetica;fontSize=11;fontColor=default;labelBackgroundColor=default;endArrow=none;endFill=0;" edge="1" parent="1" source="9d_VNe_IfC9V1MOEfFam-14" target="9d_VNe_IfC9V1MOEfFam-29">
          <mxGeometry relative="1" as="geometry" />
        </mxCell>
        <mxCell id="9d_VNe_IfC9V1MOEfFam-77" style="edgeStyle=none;rounded=0;orthogonalLoop=1;jettySize=auto;html=1;strokeColor=default;align=center;verticalAlign=middle;fontFamily=Helvetica;fontSize=11;fontColor=default;labelBackgroundColor=default;endArrow=none;endFill=0;" edge="1" parent="1" source="9d_VNe_IfC9V1MOEfFam-14" target="9d_VNe_IfC9V1MOEfFam-28">
          <mxGeometry relative="1" as="geometry" />
        </mxCell>
        <mxCell id="9d_VNe_IfC9V1MOEfFam-81" style="edgeStyle=none;rounded=0;orthogonalLoop=1;jettySize=auto;html=1;strokeColor=default;align=center;verticalAlign=middle;fontFamily=Helvetica;fontSize=11;fontColor=default;labelBackgroundColor=default;endArrow=none;endFill=0;" edge="1" parent="1" source="9d_VNe_IfC9V1MOEfFam-14" target="9d_VNe_IfC9V1MOEfFam-23">
          <mxGeometry relative="1" as="geometry" />
        </mxCell>
        <mxCell id="9d_VNe_IfC9V1MOEfFam-83" style="edgeStyle=none;rounded=0;orthogonalLoop=1;jettySize=auto;html=1;strokeColor=default;align=center;verticalAlign=middle;fontFamily=Helvetica;fontSize=11;fontColor=default;labelBackgroundColor=default;endArrow=none;endFill=0;" edge="1" parent="1" source="9d_VNe_IfC9V1MOEfFam-14" target="9d_VNe_IfC9V1MOEfFam-22">
          <mxGeometry relative="1" as="geometry" />
        </mxCell>
        <mxCell id="9d_VNe_IfC9V1MOEfFam-85" style="edgeStyle=none;rounded=0;orthogonalLoop=1;jettySize=auto;html=1;strokeColor=default;align=center;verticalAlign=middle;fontFamily=Helvetica;fontSize=11;fontColor=default;labelBackgroundColor=default;endArrow=none;endFill=0;" edge="1" parent="1" source="9d_VNe_IfC9V1MOEfFam-14" target="9d_VNe_IfC9V1MOEfFam-26">
          <mxGeometry relative="1" as="geometry" />
        </mxCell>
        <mxCell id="9d_VNe_IfC9V1MOEfFam-98" style="edgeStyle=none;rounded=0;orthogonalLoop=1;jettySize=auto;html=1;strokeColor=default;align=center;verticalAlign=middle;fontFamily=Helvetica;fontSize=11;fontColor=default;labelBackgroundColor=default;endArrow=none;endFill=0;" edge="1" parent="1" source="9d_VNe_IfC9V1MOEfFam-14" target="9d_VNe_IfC9V1MOEfFam-97">
          <mxGeometry relative="1" as="geometry" />
        </mxCell>
        <mxCell id="9d_VNe_IfC9V1MOEfFam-14" value="Администратор" style="shape=umlActor;verticalLabelPosition=bottom;verticalAlign=top;html=1;outlineConnect=0;" vertex="1" parent="1">
          <mxGeometry x="144" y="91" width="30" height="61" as="geometry" />
        </mxCell>
        <mxCell id="9d_VNe_IfC9V1MOEfFam-18" value="Выход из аккаунта" style="ellipse;whiteSpace=wrap;html=1;" vertex="1" parent="1">
          <mxGeometry x="450" y="320" width="120" height="80" as="geometry" />
        </mxCell>
        <mxCell id="9d_VNe_IfC9V1MOEfFam-19" value="&amp;lt;&amp;lt;extend&amp;gt;&amp;gt;" style="html=1;verticalAlign=bottom;labelBackgroundColor=none;endArrow=open;endFill=0;dashed=1;rounded=0;" edge="1" parent="1" source="9d_VNe_IfC9V1MOEfFam-31" target="9d_VNe_IfC9V1MOEfFam-18">
          <mxGeometry width="160" relative="1" as="geometry">
            <mxPoint x="301.8894642638361" y="403.8825557803257" as="sourcePoint" />
            <mxPoint x="80" y="790" as="targetPoint" />
          </mxGeometry>
        </mxCell>
        <mxCell id="9d_VNe_IfC9V1MOEfFam-20" value="" style="ellipse;whiteSpace=wrap;html=1;fontFamily=Helvetica;fontSize=11;fontColor=default;labelBackgroundColor=default;" vertex="1" parent="1">
          <mxGeometry x="-990" y="-630" width="120" height="80" as="geometry" />
        </mxCell>
        <mxCell id="9d_VNe_IfC9V1MOEfFam-21" value="Удаление тестов" style="ellipse;whiteSpace=wrap;html=1;fontFamily=Helvetica;fontSize=11;fontColor=default;labelBackgroundColor=default;" vertex="1" parent="1">
          <mxGeometry x="520" y="-289" width="120" height="81" as="geometry" />
        </mxCell>
        <mxCell id="9d_VNe_IfC9V1MOEfFam-22" value="Редактирование тестов" style="ellipse;whiteSpace=wrap;html=1;fontFamily=Helvetica;fontSize=11;fontColor=default;labelBackgroundColor=default;" vertex="1" parent="1">
          <mxGeometry x="520" y="-150" width="120" height="81" as="geometry" />
        </mxCell>
        <mxCell id="9d_VNe_IfC9V1MOEfFam-23" value="Добавление тестов" style="ellipse;whiteSpace=wrap;html=1;fontFamily=Helvetica;fontSize=11;fontColor=default;labelBackgroundColor=default;" vertex="1" parent="1">
          <mxGeometry x="319" y="-150" width="120" height="81" as="geometry" />
        </mxCell>
        <mxCell id="9d_VNe_IfC9V1MOEfFam-24" value="Редактирование лекции" style="ellipse;whiteSpace=wrap;html=1;fontFamily=Helvetica;fontSize=11;fontColor=default;labelBackgroundColor=default;" vertex="1" parent="1">
          <mxGeometry x="99" y="-289" width="120" height="81" as="geometry" />
        </mxCell>
        <mxCell id="9d_VNe_IfC9V1MOEfFam-25" value="Удаление лекции" style="ellipse;whiteSpace=wrap;html=1;fontFamily=Helvetica;fontSize=11;fontColor=default;labelBackgroundColor=default;" vertex="1" parent="1">
          <mxGeometry x="99.5" y="-440" width="120" height="81" as="geometry" />
        </mxCell>
        <mxCell id="9d_VNe_IfC9V1MOEfFam-26" value="Создание лекции" style="ellipse;whiteSpace=wrap;html=1;fontFamily=Helvetica;fontSize=11;fontColor=default;labelBackgroundColor=default;" vertex="1" parent="1">
          <mxGeometry x="99.5" y="-150" width="120" height="81" as="geometry" />
        </mxCell>
        <mxCell id="9d_VNe_IfC9V1MOEfFam-27" value="Удаление курса" style="ellipse;whiteSpace=wrap;html=1;fontFamily=Helvetica;fontSize=11;fontColor=default;labelBackgroundColor=default;" vertex="1" parent="1">
          <mxGeometry x="-330" y="-289" width="120" height="81" as="geometry" />
        </mxCell>
        <mxCell id="9d_VNe_IfC9V1MOEfFam-28" value="Редактирование курса" style="ellipse;whiteSpace=wrap;html=1;fontFamily=Helvetica;fontSize=11;fontColor=default;labelBackgroundColor=default;" vertex="1" parent="1">
          <mxGeometry x="-330" y="-150" width="120" height="81" as="geometry" />
        </mxCell>
        <mxCell id="9d_VNe_IfC9V1MOEfFam-29" value="Создание курса" style="ellipse;whiteSpace=wrap;html=1;fontFamily=Helvetica;fontSize=11;fontColor=default;labelBackgroundColor=default;" vertex="1" parent="1">
          <mxGeometry x="-140" y="-150" width="120" height="81" as="geometry" />
        </mxCell>
        <mxCell id="9d_VNe_IfC9V1MOEfFam-30" value="Пропустить вопрос" style="ellipse;whiteSpace=wrap;html=1;fontFamily=Helvetica;fontSize=11;fontColor=default;labelBackgroundColor=default;" vertex="1" parent="1">
          <mxGeometry x="-1060" y="30" width="120" height="80" as="geometry" />
        </mxCell>
        <mxCell id="9d_VNe_IfC9V1MOEfFam-31" value="Просмотр личного&amp;nbsp; кабинета" style="ellipse;whiteSpace=wrap;html=1;fontFamily=Helvetica;fontSize=11;fontColor=default;labelBackgroundColor=default;" vertex="1" parent="1">
          <mxGeometry x="250" y="320" width="120" height="80" as="geometry" />
        </mxCell>
        <mxCell id="9d_VNe_IfC9V1MOEfFam-32" value="Просмотр результата теста" style="ellipse;whiteSpace=wrap;html=1;fontFamily=Helvetica;fontSize=11;fontColor=default;labelBackgroundColor=default;" vertex="1" parent="1">
          <mxGeometry x="-900" y="30" width="120" height="80" as="geometry" />
        </mxCell>
        <mxCell id="9d_VNe_IfC9V1MOEfFam-33" value="Попросить подсказку" style="ellipse;whiteSpace=wrap;html=1;fontFamily=Helvetica;fontSize=11;fontColor=default;labelBackgroundColor=default;" vertex="1" parent="1">
          <mxGeometry x="-900" y="290" width="120" height="80" as="geometry" />
        </mxCell>
        <mxCell id="9d_VNe_IfC9V1MOEfFam-34" value="Просмотр результатов тестов" style="ellipse;whiteSpace=wrap;html=1;fontFamily=Helvetica;fontSize=11;fontColor=default;labelBackgroundColor=default;" vertex="1" parent="1">
          <mxGeometry x="-510" y="30" width="120" height="80" as="geometry" />
        </mxCell>
        <mxCell id="9d_VNe_IfC9V1MOEfFam-35" value="Прохождение теста по лекции" style="ellipse;whiteSpace=wrap;html=1;fontFamily=Helvetica;fontSize=11;fontColor=default;labelBackgroundColor=default;" vertex="1" parent="1">
          <mxGeometry x="-900" y="170" width="120" height="80" as="geometry" />
        </mxCell>
        <mxCell id="9d_VNe_IfC9V1MOEfFam-36" value="Просмотр прогресса" style="ellipse;whiteSpace=wrap;html=1;fontFamily=Helvetica;fontSize=11;fontColor=default;labelBackgroundColor=default;" vertex="1" parent="1">
          <mxGeometry x="-240" y="440" width="120" height="80" as="geometry" />
        </mxCell>
        <mxCell id="9d_VNe_IfC9V1MOEfFam-37" value="Просмотр описания" style="ellipse;whiteSpace=wrap;html=1;fontFamily=Helvetica;fontSize=11;fontColor=default;labelBackgroundColor=default;" vertex="1" parent="1">
          <mxGeometry x="-240" y="200" width="120" height="80" as="geometry" />
        </mxCell>
        <mxCell id="9d_VNe_IfC9V1MOEfFam-38" value="Просмотр списка лекций" style="ellipse;whiteSpace=wrap;html=1;fontFamily=Helvetica;fontSize=11;fontColor=default;labelBackgroundColor=default;" vertex="1" parent="1">
          <mxGeometry x="-510" y="170" width="120" height="80" as="geometry" />
        </mxCell>
        <mxCell id="9d_VNe_IfC9V1MOEfFam-39" value="Изучении лекции" style="ellipse;whiteSpace=wrap;html=1;fontFamily=Helvetica;fontSize=11;fontColor=default;labelBackgroundColor=default;" vertex="1" parent="1">
          <mxGeometry x="-700" y="170" width="120" height="80" as="geometry" />
        </mxCell>
        <mxCell id="9d_VNe_IfC9V1MOEfFam-40" value="Просмотр курса" style="ellipse;whiteSpace=wrap;html=1;fontFamily=Helvetica;fontSize=11;fontColor=default;labelBackgroundColor=default;" vertex="1" parent="1">
          <mxGeometry x="-410" y="320" width="120" height="80" as="geometry" />
        </mxCell>
        <mxCell id="9d_VNe_IfC9V1MOEfFam-41" value="Просмотр списка курсов" style="ellipse;whiteSpace=wrap;html=1;fontFamily=Helvetica;fontSize=11;fontColor=default;labelBackgroundColor=default;" vertex="1" parent="1">
          <mxGeometry x="-70" y="320" width="120" height="80" as="geometry" />
        </mxCell>
        <mxCell id="9d_VNe_IfC9V1MOEfFam-46" value="&amp;lt;&amp;lt;extend&amp;gt;&amp;gt;" style="html=1;verticalAlign=bottom;labelBackgroundColor=none;endArrow=open;endFill=0;dashed=1;rounded=0;strokeColor=default;align=center;fontFamily=Helvetica;fontSize=11;fontColor=default;entryX=1;entryY=0.5;entryDx=0;entryDy=0;" edge="1" parent="1" source="9d_VNe_IfC9V1MOEfFam-41" target="9d_VNe_IfC9V1MOEfFam-40">
          <mxGeometry width="160" relative="1" as="geometry">
            <mxPoint x="-350" y="410" as="sourcePoint" />
            <mxPoint x="-190" y="410" as="targetPoint" />
          </mxGeometry>
        </mxCell>
        <mxCell id="9d_VNe_IfC9V1MOEfFam-48" value="&amp;lt;&amp;lt;extend&amp;gt;&amp;gt;" style="html=1;verticalAlign=bottom;labelBackgroundColor=none;endArrow=open;endFill=0;dashed=1;rounded=0;strokeColor=default;align=center;fontFamily=Helvetica;fontSize=11;fontColor=default;" edge="1" parent="1" source="9d_VNe_IfC9V1MOEfFam-38" target="9d_VNe_IfC9V1MOEfFam-39">
          <mxGeometry width="160" relative="1" as="geometry">
            <mxPoint x="-150" y="50" as="sourcePoint" />
            <mxPoint x="-320" y="50" as="targetPoint" />
          </mxGeometry>
        </mxCell>
        <mxCell id="9d_VNe_IfC9V1MOEfFam-52" value="&amp;lt;&amp;lt;extend&amp;gt;&amp;gt;" style="html=1;verticalAlign=bottom;labelBackgroundColor=none;endArrow=open;endFill=0;dashed=1;rounded=0;strokeColor=default;align=center;fontFamily=Helvetica;fontSize=11;fontColor=default;" edge="1" parent="1" source="9d_VNe_IfC9V1MOEfFam-39" target="9d_VNe_IfC9V1MOEfFam-35">
          <mxGeometry width="160" relative="1" as="geometry">
            <mxPoint x="-280" y="510" as="sourcePoint" />
            <mxPoint x="-120" y="510" as="targetPoint" />
          </mxGeometry>
        </mxCell>
        <mxCell id="9d_VNe_IfC9V1MOEfFam-53" value="&amp;lt;&amp;lt;include&amp;gt;&amp;gt;" style="html=1;verticalAlign=bottom;labelBackgroundColor=none;endArrow=open;endFill=0;dashed=1;rounded=0;strokeColor=default;align=center;fontFamily=Helvetica;fontSize=11;fontColor=default;" edge="1" parent="1" source="9d_VNe_IfC9V1MOEfFam-41" target="9d_VNe_IfC9V1MOEfFam-37">
          <mxGeometry width="160" relative="1" as="geometry">
            <mxPoint x="-350" y="760" as="sourcePoint" />
            <mxPoint x="-190" y="760" as="targetPoint" />
          </mxGeometry>
        </mxCell>
        <mxCell id="9d_VNe_IfC9V1MOEfFam-54" value="&amp;lt;&amp;lt;include&amp;gt;&amp;gt;" style="html=1;verticalAlign=bottom;labelBackgroundColor=none;endArrow=open;endFill=0;dashed=1;rounded=0;strokeColor=default;align=center;fontFamily=Helvetica;fontSize=11;fontColor=default;" edge="1" parent="1" source="9d_VNe_IfC9V1MOEfFam-41" target="9d_VNe_IfC9V1MOEfFam-36">
          <mxGeometry width="160" relative="1" as="geometry">
            <mxPoint x="-213" y="399" as="sourcePoint" />
            <mxPoint x="-237" y="471" as="targetPoint" />
          </mxGeometry>
        </mxCell>
        <mxCell id="9d_VNe_IfC9V1MOEfFam-55" value="&amp;lt;&amp;lt;include&amp;gt;&amp;gt;" style="html=1;verticalAlign=bottom;labelBackgroundColor=none;endArrow=open;endFill=0;dashed=1;rounded=0;strokeColor=default;align=center;fontFamily=Helvetica;fontSize=11;fontColor=default;" edge="1" parent="1" source="9d_VNe_IfC9V1MOEfFam-40" target="9d_VNe_IfC9V1MOEfFam-36">
          <mxGeometry width="160" relative="1" as="geometry">
            <mxPoint x="-243" y="388" as="sourcePoint" />
            <mxPoint x="-357" y="462" as="targetPoint" />
          </mxGeometry>
        </mxCell>
        <mxCell id="9d_VNe_IfC9V1MOEfFam-59" value="&amp;lt;&amp;lt;include&amp;gt;&amp;gt;" style="html=1;verticalAlign=bottom;labelBackgroundColor=none;endArrow=open;endFill=0;dashed=1;rounded=0;strokeColor=default;align=center;fontFamily=Helvetica;fontSize=11;fontColor=default;" edge="1" parent="1" source="9d_VNe_IfC9V1MOEfFam-40" target="9d_VNe_IfC9V1MOEfFam-37">
          <mxGeometry width="160" relative="1" as="geometry">
            <mxPoint x="-370" y="690" as="sourcePoint" />
            <mxPoint x="-210" y="690" as="targetPoint" />
          </mxGeometry>
        </mxCell>
        <mxCell id="9d_VNe_IfC9V1MOEfFam-65" value="&amp;lt;&amp;lt;include&amp;gt;&amp;gt;" style="html=1;verticalAlign=bottom;labelBackgroundColor=none;endArrow=open;endFill=0;dashed=1;rounded=0;strokeColor=default;align=center;fontFamily=Helvetica;fontSize=11;fontColor=default;" edge="1" parent="1" source="9d_VNe_IfC9V1MOEfFam-38" target="9d_VNe_IfC9V1MOEfFam-34">
          <mxGeometry x="-0.0026" width="160" relative="1" as="geometry">
            <mxPoint x="-620" y="310" as="sourcePoint" />
            <mxPoint x="-460" y="310" as="targetPoint" />
            <mxPoint as="offset" />
          </mxGeometry>
        </mxCell>
        <mxCell id="9d_VNe_IfC9V1MOEfFam-66" value="&amp;lt;&amp;lt;extend&amp;gt;&amp;gt;" style="html=1;verticalAlign=bottom;labelBackgroundColor=none;endArrow=open;endFill=0;dashed=1;rounded=0;strokeColor=default;align=center;fontFamily=Helvetica;fontSize=11;fontColor=default;" edge="1" parent="1" source="9d_VNe_IfC9V1MOEfFam-35" target="9d_VNe_IfC9V1MOEfFam-32">
          <mxGeometry width="160" relative="1" as="geometry">
            <mxPoint x="-860" y="360" as="sourcePoint" />
            <mxPoint x="-700" y="360" as="targetPoint" />
          </mxGeometry>
        </mxCell>
        <mxCell id="9d_VNe_IfC9V1MOEfFam-67" value="&amp;lt;&amp;lt;include&amp;gt;&amp;gt;" style="html=1;verticalAlign=bottom;labelBackgroundColor=none;endArrow=open;endFill=0;dashed=1;rounded=0;strokeColor=default;align=center;fontFamily=Helvetica;fontSize=11;fontColor=default;" edge="1" parent="1" source="9d_VNe_IfC9V1MOEfFam-35" target="9d_VNe_IfC9V1MOEfFam-33">
          <mxGeometry width="160" relative="1" as="geometry">
            <mxPoint x="-1180" y="400" as="sourcePoint" />
            <mxPoint x="-1020" y="400" as="targetPoint" />
          </mxGeometry>
        </mxCell>
        <mxCell id="9d_VNe_IfC9V1MOEfFam-68" value="&amp;lt;&amp;lt;extend&amp;gt;&amp;gt;" style="html=1;verticalAlign=bottom;labelBackgroundColor=none;endArrow=open;endFill=0;dashed=1;rounded=0;strokeColor=default;align=center;fontFamily=Helvetica;fontSize=11;fontColor=default;" edge="1" parent="1" source="9d_VNe_IfC9V1MOEfFam-35" target="9d_VNe_IfC9V1MOEfFam-30">
          <mxGeometry width="160" relative="1" as="geometry">
            <mxPoint x="-1160" y="400" as="sourcePoint" />
            <mxPoint x="-1000" y="400" as="targetPoint" />
          </mxGeometry>
        </mxCell>
        <mxCell id="9d_VNe_IfC9V1MOEfFam-78" value="&amp;lt;&amp;lt;include&amp;gt;&amp;gt;" style="html=1;verticalAlign=bottom;labelBackgroundColor=none;endArrow=open;endFill=0;dashed=1;rounded=0;strokeColor=default;align=center;fontFamily=Helvetica;fontSize=11;fontColor=default;" edge="1" parent="1" source="9d_VNe_IfC9V1MOEfFam-29" target="9d_VNe_IfC9V1MOEfFam-28">
          <mxGeometry width="160" relative="1" as="geometry">
            <mxPoint x="-361" y="20" as="sourcePoint" />
            <mxPoint x="-201" y="20" as="targetPoint" />
          </mxGeometry>
        </mxCell>
        <mxCell id="9d_VNe_IfC9V1MOEfFam-86" value="&amp;lt;&amp;lt;include&amp;gt;&amp;gt;" style="html=1;verticalAlign=bottom;labelBackgroundColor=none;endArrow=open;endFill=0;dashed=1;rounded=0;strokeColor=default;align=center;fontFamily=Helvetica;fontSize=11;fontColor=default;" edge="1" parent="1" source="9d_VNe_IfC9V1MOEfFam-23" target="9d_VNe_IfC9V1MOEfFam-22">
          <mxGeometry width="160" relative="1" as="geometry">
            <mxPoint x="179" y="72" as="sourcePoint" />
            <mxPoint x="339" y="72" as="targetPoint" />
          </mxGeometry>
        </mxCell>
        <mxCell id="9d_VNe_IfC9V1MOEfFam-87" value="&amp;lt;&amp;lt;include&amp;gt;&amp;gt;" style="html=1;verticalAlign=bottom;labelBackgroundColor=none;endArrow=open;endFill=0;dashed=1;rounded=0;strokeColor=default;align=center;fontFamily=Helvetica;fontSize=11;fontColor=default;" edge="1" parent="1" source="9d_VNe_IfC9V1MOEfFam-26" target="9d_VNe_IfC9V1MOEfFam-24">
          <mxGeometry x="-0.3217" y="-1" width="160" relative="1" as="geometry">
            <mxPoint x="388.5" y="312" as="sourcePoint" />
            <mxPoint x="548.5" y="312" as="targetPoint" />
            <mxPoint as="offset" />
          </mxGeometry>
        </mxCell>
        <mxCell id="9d_VNe_IfC9V1MOEfFam-88" value="" style="ellipse;whiteSpace=wrap;html=1;fontFamily=Helvetica;fontSize=11;fontColor=default;labelBackgroundColor=default;" vertex="1" parent="1">
          <mxGeometry x="-980" y="-620" width="120" height="80" as="geometry" />
        </mxCell>
        <mxCell id="9d_VNe_IfC9V1MOEfFam-89" value="" style="ellipse;whiteSpace=wrap;html=1;fontFamily=Helvetica;fontSize=11;fontColor=default;labelBackgroundColor=default;" vertex="1" parent="1">
          <mxGeometry x="-970" y="-610" width="120" height="80" as="geometry" />
        </mxCell>
        <mxCell id="9d_VNe_IfC9V1MOEfFam-90" value="" style="ellipse;whiteSpace=wrap;html=1;fontFamily=Helvetica;fontSize=11;fontColor=default;labelBackgroundColor=default;" vertex="1" parent="1">
          <mxGeometry x="-960" y="-600" width="120" height="80" as="geometry" />
        </mxCell>
        <mxCell id="9d_VNe_IfC9V1MOEfFam-91" value="" style="ellipse;whiteSpace=wrap;html=1;fontFamily=Helvetica;fontSize=11;fontColor=default;labelBackgroundColor=default;" vertex="1" parent="1">
          <mxGeometry x="-950" y="-590" width="120" height="80" as="geometry" />
        </mxCell>
        <mxCell id="9d_VNe_IfC9V1MOEfFam-92" value="" style="ellipse;whiteSpace=wrap;html=1;fontFamily=Helvetica;fontSize=11;fontColor=default;labelBackgroundColor=default;" vertex="1" parent="1">
          <mxGeometry x="-940" y="-580" width="120" height="80" as="geometry" />
        </mxCell>
        <mxCell id="9d_VNe_IfC9V1MOEfFam-93" value="" style="ellipse;whiteSpace=wrap;html=1;fontFamily=Helvetica;fontSize=11;fontColor=default;labelBackgroundColor=default;" vertex="1" parent="1">
          <mxGeometry x="-930" y="-570" width="120" height="80" as="geometry" />
        </mxCell>
        <mxCell id="9d_VNe_IfC9V1MOEfFam-94" value="" style="ellipse;whiteSpace=wrap;html=1;fontFamily=Helvetica;fontSize=11;fontColor=default;labelBackgroundColor=default;" vertex="1" parent="1">
          <mxGeometry x="-920" y="-560" width="120" height="80" as="geometry" />
        </mxCell>
        <mxCell id="9d_VNe_IfC9V1MOEfFam-95" value="" style="ellipse;whiteSpace=wrap;html=1;fontFamily=Helvetica;fontSize=11;fontColor=default;labelBackgroundColor=default;" vertex="1" parent="1">
          <mxGeometry x="-910" y="-550" width="120" height="80" as="geometry" />
        </mxCell>
        <mxCell id="9d_VNe_IfC9V1MOEfFam-96" value="Просмотр статистики&lt;br&gt;по курсу" style="ellipse;whiteSpace=wrap;html=1;fontFamily=Helvetica;fontSize=11;fontColor=default;labelBackgroundColor=default;" vertex="1" parent="1">
          <mxGeometry x="-140" y="-288" width="120" height="80" as="geometry" />
        </mxCell>
        <mxCell id="9d_VNe_IfC9V1MOEfFam-97" value="&lt;font style=&quot;font-size: 10px;&quot;&gt;Удаление пользователя&lt;/font&gt;" style="ellipse;whiteSpace=wrap;html=1;fontFamily=Helvetica;fontSize=11;fontColor=default;labelBackgroundColor=default;" vertex="1" parent="1">
          <mxGeometry x="370" y="81" width="120" height="81" as="geometry" />
        </mxCell>
        <mxCell id="9d_VNe_IfC9V1MOEfFam-100" value="&amp;lt;&amp;lt;extend&amp;gt;&amp;gt;" style="html=1;verticalAlign=bottom;labelBackgroundColor=none;endArrow=open;endFill=0;dashed=1;rounded=0;strokeColor=default;align=center;fontFamily=Helvetica;fontSize=11;fontColor=default;" edge="1" parent="1" source="9d_VNe_IfC9V1MOEfFam-28" target="9d_VNe_IfC9V1MOEfFam-27">
          <mxGeometry width="160" relative="1" as="geometry">
            <mxPoint x="-330" y="120" as="sourcePoint" />
            <mxPoint x="-170" y="120" as="targetPoint" />
          </mxGeometry>
        </mxCell>
        <mxCell id="9d_VNe_IfC9V1MOEfFam-101" value="&amp;lt;&amp;lt;extend&amp;gt;&amp;gt;" style="html=1;verticalAlign=bottom;labelBackgroundColor=none;endArrow=open;endFill=0;dashed=1;rounded=0;strokeColor=default;align=center;fontFamily=Helvetica;fontSize=11;fontColor=default;" edge="1" parent="1" source="9d_VNe_IfC9V1MOEfFam-22" target="9d_VNe_IfC9V1MOEfFam-21">
          <mxGeometry width="160" relative="1" as="geometry">
            <mxPoint x="520" y="125.5" as="sourcePoint" />
            <mxPoint x="680" y="125.5" as="targetPoint" />
          </mxGeometry>
        </mxCell>
        <mxCell id="9d_VNe_IfC9V1MOEfFam-102" value="&amp;lt;&amp;lt;extend&amp;gt;&amp;gt;" style="html=1;verticalAlign=bottom;labelBackgroundColor=none;endArrow=open;endFill=0;dashed=1;rounded=0;strokeColor=default;align=center;fontFamily=Helvetica;fontSize=11;fontColor=default;" edge="1" parent="1" source="9d_VNe_IfC9V1MOEfFam-24" target="9d_VNe_IfC9V1MOEfFam-25">
          <mxGeometry width="160" relative="1" as="geometry">
            <mxPoint x="189.5" y="-40" as="sourcePoint" />
            <mxPoint x="349.5" y="-40" as="targetPoint" />
          </mxGeometry>
        </mxCell>
        <mxCell id="9d_VNe_IfC9V1MOEfFam-104" value="Просмотр профиля пользователя" style="ellipse;whiteSpace=wrap;html=1;fontFamily=Helvetica;fontSize=11;fontColor=default;labelBackgroundColor=default;" vertex="1" parent="1">
          <mxGeometry x="370" y="200" width="120" height="80" as="geometry" />
        </mxCell>
        <mxCell id="9d_VNe_IfC9V1MOEfFam-105" style="edgeStyle=none;rounded=0;orthogonalLoop=1;jettySize=auto;html=1;strokeColor=default;align=center;verticalAlign=middle;fontFamily=Helvetica;fontSize=11;fontColor=default;labelBackgroundColor=default;endArrow=none;endFill=0;" edge="1" parent="1" source="9d_VNe_IfC9V1MOEfFam-14" target="9d_VNe_IfC9V1MOEfFam-96">
          <mxGeometry relative="1" as="geometry">
            <mxPoint x="154" y="124" as="sourcePoint" />
            <mxPoint x="-271" y="-76" as="targetPoint" />
          </mxGeometry>
        </mxCell>
        <mxCell id="9d_VNe_IfC9V1MOEfFam-106" style="edgeStyle=none;rounded=0;orthogonalLoop=1;jettySize=auto;html=1;strokeColor=default;align=center;verticalAlign=middle;fontFamily=Helvetica;fontSize=11;fontColor=default;labelBackgroundColor=default;endArrow=none;endFill=0;" edge="1" parent="1" source="9d_VNe_IfC9V1MOEfFam-14" target="9d_VNe_IfC9V1MOEfFam-104">
          <mxGeometry relative="1" as="geometry">
            <mxPoint x="184" y="131" as="sourcePoint" />
            <mxPoint x="380" y="131" as="targetPoint" />
          </mxGeometry>
        </mxCell>
      </root>
    </mxGraphModel>
  </diagram>
</mxfile>
